<?xml version="1.0" encoding="UTF-8" standalone="no"?>
<!-- Created with Inkscape (http://www.inkscape.org/) -->

<svg
   width="164.7534mm"
   height="42.376801mm"
   viewBox="0 0 164.7534 42.376801"
   version="1.1"
   id="svg5"
   inkscape:export-filename="french_bread.svg"
   inkscape:export-xdpi="30.83396"
   inkscape:export-ydpi="30.83396"
   xmlns:inkscape="http://www.inkscape.org/namespaces/inkscape"
   xmlns:sodipodi="http://sodipodi.sourceforge.net/DTD/sodipodi-0.dtd"
   xmlns="http://www.w3.org/2000/svg"
   xmlns:svg="http://www.w3.org/2000/svg">
  <sodipodi:namedview
     id="namedview7"
     pagecolor="#ffffff"
     bordercolor="#999999"
     borderopacity="1"
     inkscape:showpageshadow="0"
     inkscape:pageopacity="0"
     inkscape:pagecheckerboard="0"
     inkscape:deskcolor="#d1d1d1"
     inkscape:document-units="mm"
     showgrid="false"
     inkscape:zoom="0.75455247"
     inkscape:cx="322.70784"
     inkscape:cy="561.92249"
     inkscape:window-width="1920"
     inkscape:window-height="1027"
     inkscape:window-x="-8"
     inkscape:window-y="-8"
     inkscape:window-maximized="1"
     inkscape:current-layer="layer1" />
  <defs
     id="defs2" />
  <g
     inkscape:label="Layer 1"
     inkscape:groupmode="layer"
     id="layer1"
     transform="translate(-24.045271,-80.149336)">
    <g
       id="g1373"
       inkscape:label="bread">
      <rect
         style="opacity:0.808081;fill:#deaa87;stroke:#000000;stroke-width:1;stroke-linejoin:round"
         id="rect1074"
         width="163.75323"
         height="41.376614"
         x="24.545452"
         y="80.649353"
         ry="18.058437" />
      <path
         id="rect1076"
         style="opacity:0.808081;fill:#a05a2c;stroke:#000000;stroke-linejoin:round"
         d="m 42.604118,80.649341 c -10.004334,0 -18.058846,8.053995 -18.058846,18.058329 v 5.25963 c 0,10.00433 8.054512,18.05884 18.058846,18.05884 H 170.24025 c 10.00433,0 18.05833,-8.05451 18.05833,-18.05884 v -5.25963 c 0,-10.004334 -8.054,-18.058329 -18.05833,-18.058329 h -26.16274 c -0.90541,11.517988 -1.69332,26.808719 0.0222,31.302999 0.93992,1.32103 1.27793,1.76715 0.53485,0.95653 -0.20087,-0.21913 -0.37779,-0.54509 -0.53485,-0.95653 -3.21381,-4.51693 -13.61418,-19.480748 -13.18834,-31.302999 h -12.76253 c -0.90485,11.50975 -1.69311,26.785129 0.0176,31.292659 0.79898,1.12047 1.23209,1.72355 0.53847,0.96687 -0.20251,-0.22092 -0.38047,-0.55056 -0.53847,-0.96687 -2.98374,-4.18427 -13.61433,-19.240161 -13.17956,-31.292659 H 89.573861 c -0.904872,11.510169 -1.693355,26.786289 0.01757,31.293179 0.798712,1.12009 1.231991,1.72292 0.538468,0.96635 -0.202431,-0.22083 -0.380521,-0.55029 -0.538468,-0.96635 C 86.608175,107.75891 75.977086,92.702267 76.411873,80.649341 H 58.352511 c -0.905372,11.517572 -1.693607,26.807669 0.0217,31.302479 0.940078,1.32128 1.277977,1.76774 0.534851,0.95705 -0.200941,-0.21921 -0.377755,-0.54539 -0.534851,-0.95705 C 55.160173,107.43454 44.760562,92.471285 45.186389,80.649341 Z" />
    </g>
  </g>
</svg>
